<?xml version="1.0" standalone="no"?>
<!DOCTYPE svg PUBLIC "-//W3C//DTD SVG 20010904//EN"
 "http://www.w3.org/TR/2001/REC-SVG-20010904/DTD/svg10.dtd">
<svg version="1.0" xmlns="http://www.w3.org/2000/svg"
 width="5499.000000pt" height="1245.000000pt" viewBox="0 0 5499.000000 1245.000000"
 preserveAspectRatio="xMidYMid meet">

<g transform="translate(0.000000,1245.000000) scale(0.100000,-0.100000)"
fill="#000000" stroke="none">
<path d="M30090 12433 c-718 -52 -1412 -329 -2000 -797 -161 -128 -428 -396
-558 -558 -647 -811 -920 -1819 -771 -2853 90 -629 355 -1224 783 -1760 112
-140 397 -422 546 -541 542 -431 1147 -690 1820 -779 167 -22 584 -31 765 -16
833 69 1604 412 2208 983 l88 83 -639 639 -640 639 -59 -54 c-190 -179 -411
-311 -664 -397 -652 -224 -1374 -60 -1883 428 -266 256 -452 598 -528 972 -20
99 -23 142 -23 348 0 266 15 370 83 575 47 143 164 375 249 495 78 108 226
267 328 350 172 140 406 268 620 339 616 204 1349 50 1813 -382 l64 -60 479
479 479 479 0 -212 0 -213 878 -2 877 -3 3 -2747 2 -2748 900 0 900 0 0 2750
0 2750 468 0 467 0 900 900 900 900 -3148 0 -3147 0 0 -385 0 -385 -82 64
c-518 396 -1164 647 -1837 711 -138 13 -507 18 -641 8z"/>
<path d="M2080 12419 c-285 -23 -534 -95 -802 -231 -695 -351 -1147 -983
-1259 -1758 -19 -129 -16 -471 5 -615 93 -639 449 -1208 982 -1567 312 -212
650 -338 1006 -377 62 -7 432 -11 1015 -11 1010 0 998 0 1114 -61 33 -18 85
-57 115 -88 246 -245 136 -637 -211 -752 -33 -11 -395 -15 -1947 -19 l-1906
-5 901 -912 902 -912 945 0 c962 0 1185 5 1358 35 720 121 1346 586 1665 1236
150 308 220 586 234 933 27 711 -290 1404 -847 1848 -262 210 -616 381 -922
448 -240 52 -228 52 -1284 58 l-990 6 -76 38 c-227 112 -328 395 -223 625 54
117 196 228 324 252 34 6 419 10 1032 10 l979 0 0 915 0 915 -1007 -1 c-555
-1 -1051 -5 -1103 -10z"/>
<path d="M9800 12424 c-582 -39 -1029 -159 -1496 -403 -703 -368 -1249 -922
-1603 -1629 -195 -388 -306 -763 -363 -1222 -17 -140 -17 -658 0 -805 42 -350
120 -657 243 -957 395 -961 1155 -1698 2134 -2071 432 -164 923 -238 1435
-216 756 32 1455 295 2090 785 143 110 467 432 584 579 329 414 575 904 695
1383 81 320 105 527 105 892 1 290 -7 397 -45 625 -144 865 -642 1703 -1339
2250 -543 427 -1194 697 -1855 769 -140 15 -482 27 -585 20z m351 -1835 c127
-13 265 -42 384 -81 126 -41 372 -166 485 -245 141 -100 368 -331 459 -467
261 -392 365 -824 306 -1267 -67 -506 -343 -965 -760 -1265 -110 -79 -376
-212 -505 -253 -355 -114 -760 -112 -1119 5 -130 42 -337 143 -450 219 -419
282 -708 722 -796 1215 -22 128 -31 390 -16 515 35 298 136 568 311 829 85
127 266 319 395 419 372 287 844 424 1306 376z"/>
<path d="M48560 12420 c-322 -10 -516 -35 -795 -104 -775 -192 -1483 -649
-1986 -1278 -397 -498 -667 -1087 -769 -1683 -55 -321 -53 -237 -57 -2312 l-4
-1923 895 0 896 0 0 1823 c0 1214 4 1860 11 1933 38 397 207 778 490 1103 198
228 528 444 830 545 218 72 442 102 694 93 88 -3 184 -12 213 -20 l53 -14 278
283 c154 156 283 284 287 284 5 0 330 -510 721 -1133 l713 -1132 0 -1882 0
-1883 895 0 895 0 0 1880 0 1879 1076 1758 c592 967 1081 1764 1086 1771 9 10
-197 12 -1032 10 l-1042 -3 -484 -779 c-266 -429 -487 -783 -492 -788 -5 -5
-216 325 -498 781 l-489 790 -1035 1 c-569 0 -1051 2 -1070 4 -19 2 -145 0
-280 -4z"/>
<path d="M22525 12414 c-450 -45 -817 -141 -1192 -312 -1061 -486 -1827 -1451
-2064 -2600 -79 -382 -90 -889 -29 -1292 113 -749 457 -1440 988 -1982 656
-670 1531 -1064 2455 -1105 l149 -6 909 909 909 909 -1012 5 c-995 6 -1015 6
-1125 28 -438 87 -856 341 -1118 682 -332 431 -460 966 -355 1481 39 189 126
406 236 588 271 446 732 760 1256 857 193 36 483 29 693 -17 205 -44 450 -148
630 -266 386 -254 664 -650 780 -1110 45 -180 45 -159 45 -2165 l0 -1898 905
0 906 0 -4 1968 c-4 2046 -3 2012 -47 2276 -110 660 -400 1277 -845 1796 -515
602 -1248 1035 -2013 1189 -266 54 -371 64 -707 66 -170 2 -328 1 -350 -1z"/>
<path d="M40680 12409 c-989 -98 -1903 -605 -2523 -1401 -341 -438 -591 -978
-697 -1508 -55 -270 -64 -376 -65 -720 0 -320 6 -406 45 -640 171 -1017 821
-1957 1729 -2504 450 -270 925 -433 1456 -498 172 -21 695 -18 865 5 421 57
755 157 1125 336 605 293 1093 717 1465 1271 316 471 505 970 587 1551 22 158
26 749 5 899 -54 390 -143 713 -286 1035 -335 752 -894 1357 -1621 1753 -385
210 -801 345 -1250 408 -141 19 -683 28 -835 13z m593 -1824 c585 -77 1113
-448 1386 -976 158 -303 219 -568 208 -899 -10 -282 -63 -498 -183 -745 -99
-205 -224 -375 -386 -530 -162 -154 -330 -267 -538 -360 -561 -250 -1225 -189
-1751 163 -272 182 -484 426 -629 726 -271 558 -248 1190 64 1719 295 502 811
840 1383 906 115 14 326 12 446 -4z"/>
<path d="M17115 12384 c-529 -41 -911 -144 -1346 -365 -1046 -531 -1743 -1556
-1849 -2719 -6 -75 -10 -818 -10 -2147 l0 -2033 900 0 900 0 0 1405 0 1405
478 0 477 1 910 902 910 902 -1282 3 c-706 1 -1283 6 -1283 10 0 5 19 39 42
78 139 233 333 418 589 565 351 202 839 247 1236 114 173 -58 350 -155 494
-270 l66 -54 560 637 c309 350 579 658 602 684 l42 47 -77 63 c-496 409 -1128
677 -1774 753 -131 15 -484 27 -585 19z"/>
<path d="M15520 3080 c-335 -35 -602 -157 -801 -366 -209 -220 -309 -500 -309
-868 0 -385 110 -673 341 -891 249 -234 606 -348 1044 -332 234 8 393 46 581
137 295 143 476 375 529 677 15 87 20 287 9 356 l-7 37 -603 0 -604 0 0 -85 0
-85 515 0 c466 0 516 -2 522 -16 11 -29 -16 -217 -41 -292 -78 -229 -292 -417
-574 -506 -302 -95 -712 -68 -991 65 -354 168 -541 493 -541 939 0 559 308
942 842 1045 115 22 322 30 448 16 422 -46 679 -234 791 -581 l27 -85 91 -3
c110 -3 108 -9 55 147 -129 388 -397 604 -839 676 -112 19 -372 27 -485 15z"/>
<path d="M41222 3079 c-228 -20 -442 -91 -552 -184 -142 -119 -209 -307 -181
-509 17 -117 63 -206 150 -288 152 -144 279 -188 991 -343 281 -61 381 -91
482 -141 119 -60 180 -145 199 -280 31 -221 -95 -392 -353 -480 -147 -50 -218
-59 -458 -59 -237 0 -328 11 -470 57 -157 50 -294 148 -356 254 -54 91 -76
171 -82 292 l-5 112 -95 0 -94 0 7 -107 c9 -146 29 -233 76 -329 108 -221 350
-371 699 -431 140 -24 500 -24 635 1 481 88 723 339 677 702 -26 207 -121 341
-310 434 -137 68 -368 132 -722 200 -454 87 -602 139 -700 247 -71 78 -93 143
-88 263 3 77 9 105 31 151 93 193 385 293 812 276 309 -12 487 -68 603 -191
80 -84 119 -178 143 -336 l11 -80 90 0 90 0 -7 78 c-36 392 -276 619 -721 682
-111 15 -380 20 -502 9z"/>
<path d="M47480 3080 c-335 -35 -602 -157 -801 -366 -209 -220 -309 -500 -309
-868 0 -385 110 -673 341 -891 249 -234 606 -348 1044 -332 234 8 393 46 581
137 295 143 476 375 529 677 15 87 20 287 9 356 l-7 37 -603 0 -604 0 0 -85 0
-85 515 0 c466 0 516 -2 522 -16 11 -29 -16 -217 -41 -292 -78 -229 -292 -417
-574 -506 -302 -95 -712 -68 -991 65 -354 168 -541 493 -541 939 0 559 308
942 842 1045 115 22 322 30 448 16 422 -46 679 -234 791 -581 l27 -85 91 -3
c110 -3 108 -9 55 147 -129 388 -397 604 -839 676 -112 19 -372 27 -485 15z"/>
<path d="M1210 1855 l0 -1205 90 0 90 0 0 1205 0 1205 -90 0 -90 0 0 -1205z"/>
<path d="M3290 1855 l0 -1205 90 0 90 0 2 1067 3 1068 870 -1065 871 -1065 97
-3 97 -3 0 1206 0 1205 -90 0 -90 0 -2 -1061 -3 -1060 -115 143 c-63 79 -317
386 -565 683 -475 570 -847 1023 -980 1192 l-80 102 -97 1 -98 0 0 -1205z"/>
<path d="M7130 2980 l0 -80 460 0 460 0 0 -1125 0 -1125 90 0 90 0 2 1123 3
1122 463 3 462 2 0 80 0 80 -1015 0 -1015 0 0 -80z"/>
<path d="M10870 1855 l0 -1205 930 0 930 0 0 80 0 80 -840 0 -840 0 0 505 0
505 735 0 735 0 0 85 0 85 -735 0 -735 0 0 455 0 455 830 0 830 0 0 80 0 80
-920 0 -920 0 0 -1205z"/>
<path d="M18790 1855 l0 -1205 90 0 90 0 2 537 3 538 450 3 c631 4 780 -10
937 -89 73 -37 146 -107 176 -170 44 -92 52 -162 52 -501 l0 -318 90 0 90 0 0
338 c-1 388 -8 454 -66 570 -47 97 -126 176 -226 227 l-77 40 85 44 c139 72
227 171 282 320 33 88 43 309 18 414 -46 197 -189 338 -411 407 -152 46 -217
50 -922 50 l-663 0 0 -1205z m1257 1035 c234 -16 369 -65 465 -168 72 -78 99
-147 105 -272 14 -265 -127 -437 -425 -518 l-97 -26 -562 -4 -563 -3 0 494 c0
271 3 497 7 500 10 10 918 8 1070 -3z"/>
<path d="M23045 1864 c-308 -658 -561 -1200 -563 -1205 -2 -5 41 -9 101 -9
l104 0 174 375 173 375 647 0 646 0 167 -368 c92 -202 171 -371 175 -375 4 -4
51 -6 104 -5 l96 3 -543 1200 -544 1200 -88 2 -89 3 -560 -1196z m928 320
l273 -599 -560 -3 c-307 -1 -561 -1 -563 1 -1 2 126 274 284 605 157 331 288
601 290 598 2 -2 126 -273 276 -602z"/>
<path d="M26560 1855 l0 -1205 855 0 855 0 0 80 0 80 -762 2 -763 3 -3 1123
-2 1122 -90 0 -90 0 0 -1205z"/>
<path d="M32830 1855 l0 -1206 563 4 c529 4 568 5 661 25 531 115 852 431 931
915 22 139 20 416 -5 562 -46 271 -139 456 -310 618 -135 128 -297 209 -515
258 -96 22 -122 23 -712 26 l-613 4 0 -1206z m1216 1021 c454 -78 705 -348
765 -822 13 -110 8 -380 -11 -464 -86 -404 -336 -647 -760 -741 -137 -30 -323
-40 -685 -37 l-340 3 -3 1030 c-1 567 0 1036 3 1044 8 21 901 10 1031 -13z"/>
<path d="M36860 1855 l0 -1205 930 0 930 0 0 80 0 80 -840 0 -840 0 0 505 0
505 735 0 735 0 0 85 0 85 -735 0 -735 0 0 455 0 455 830 0 830 0 0 80 0 80
-920 0 -920 0 0 -1205z"/>
<path d="M44370 1855 l0 -1205 90 0 90 0 0 1205 0 1205 -90 0 -90 0 0 -1205z"/>
<path d="M50760 1855 l0 -1205 90 0 90 0 2 1067 3 1068 870 -1065 871 -1065
97 -3 97 -3 0 1206 0 1205 -90 0 -90 0 -2 -1061 -3 -1060 -115 143 c-63 79
-317 386 -565 683 -475 570 -847 1023 -980 1192 l-80 102 -97 1 -98 0 0 -1205z"/>
</g>
</svg>
